# xmcd
#
# Track frame offsets:
#	150
#	18333
#	37174
#	55269
#	69759
#	83455
#	103032
#	129540
#	148508
#	165980
#	184864
#	196376
#	210801
#	226336
#	239828
#	261277
#	286193
#	304507
#	320088
#	337325
#
# Disc length: 4795 seconds
#
# Revision: 0
# Processed by: cddbd v1.5.2PL0 Copyright (c) Steve Scherf et al.
# Submitted via: audiograbber 1.83.01
#
DISCID=1c12b914
DTITLE=Various Artist - 100 Hits Rock Jukebox CD5
DYEAR=2016
DGENRE=Rock
TTITLE0=Toto - Rosanna
TTITLE1=Survivor - American Heartbeat
TTITLE2=Ram Jam - Let It All Out
TTITLE3=Gillan - Mutually Assured Destruction
TTITLE4=The Only Ones - Another Girl, Another Planet
TTITLE5=Randy California - I Don't Want Nobody
TTITLE6=Patti Smith - Gloria
TTITLE7=Cyndi Lauper - I Drove All Night
TTITLE8=Air Supply - All Out Of Love
TTITLE9=Belinda Carlisle - Summer Rain
TTITLE10=The Primitives - Crash
TTITLE11=Cheap Trick - I Want You To Want Me
TTITLE12=The Psychedelic Furs - Heaven
TTITLE13=Rick Springfield - Don't Talk To Strangers
TTITLE14=The Edgar Winter Group - Frankenstein
TTITLE15=The Allman Brothers Band - Low Down Dirty Mean
TTITLE16=Family - Burlesque
TTITLE17=The Byrds - Goin' Back
TTITLE18=Roachford - Family Man
TTITLE19=Redbone - Come and Get Your Love
EXTD=
EXTT0=
EXTT1=
EXTT2=
EXTT3=
EXTT4=
EXTT5=
EXTT6=
EXTT7=
EXTT8=
EXTT9=
EXTT10=
EXTT11=
EXTT12=
EXTT13=
EXTT14=
EXTT15=
EXTT16=
EXTT17=
EXTT18=
EXTT19=
PLAYORDER=
